<?xml version="1.0" encoding="utf-8"?>
<!-- Generator: Adobe Illustrator 15.0.2, SVG Export Plug-In  -->
<!DOCTYPE svg PUBLIC "-//W3C//DTD SVG 1.1//EN" "http://www.w3.org/Graphics/SVG/1.1/DTD/svg11.dtd" [
	<!ENTITY ns_flows "http://ns.adobe.com/Flows/1.0/">
]>
<svg version="1.1"
	 xmlns="http://www.w3.org/2000/svg" xmlns:xlink="http://www.w3.org/1999/xlink" xmlns:a="http://ns.adobe.com/AdobeSVGViewerExtensions/3.0/"
	 x="0px" y="0px" width="187px" height="67px" viewBox="441.92 231.984 187 67"
	 overflow="visible" enable-background="new 441.92 231.984 187 67" xml:space="preserve">
<defs>
</defs>
<g>
	<defs>
		<rect id="SVGID_1_" width="629.308" height="299"/>
	</defs>
	<clipPath id="SVGID_2_">
		<use xlink:href="#SVGID_1_"  overflow="visible"/>
	</clipPath>
	<g clip-path="url(#SVGID_2_)">
		<g>
			<path fill="#35495E" d="M604.934,339.458h-64.51c-9.519,0-17.261-7.741-17.261-17.256v-64.516
				c0-9.517,7.742-17.257,17.261-17.257h64.51c9.521,0,17.264,7.74,17.264,17.257v64.516
				C622.197,331.717,614.455,339.458,604.934,339.458z M540.424,245.917c-6.492,0-11.776,5.279-11.776,11.77v64.516
				c0,6.49,5.284,11.77,11.776,11.77h64.51c6.495,0,11.776-5.279,11.776-11.77v-64.516c0-6.49-5.281-11.77-11.776-11.77H540.424z"/>
		</g>
		<path fill="#35495E" d="M564.812,303.688c-0.589,2.368-3.135,3.787-5.657,3.14c-2.545-0.637-4.126-3.086-3.515-5.462
			c0.601-2.379,3.14-3.793,5.668-3.146C563.837,298.854,565.423,301.303,564.812,303.688z"/>
		<path fill="#35495E" d="M568.054,322.376c-0.596,2.388-3.133,3.791-5.674,3.145c-2.534-0.632-4.1-3.083-3.498-5.465
			c0.604-2.384,3.144-3.785,5.668-3.145C567.09,317.544,568.653,319.989,568.054,322.376z"/>
		<path fill="#35495E" d="M596.363,296.762c-0.585,2.376-3.128,3.78-5.664,3.142c-2.533-0.637-4.093-3.08-3.498-5.458
			c0.616-2.383,3.139-3.799,5.667-3.153C595.415,291.93,596.979,294.38,596.363,296.762z"/>
		<path fill="#35495E" d="M587.089,313.052c-0.61,2.373-3.149,3.789-5.678,3.131c-2.535-0.627-4.105-3.074-3.516-5.449
			c0.621-2.391,3.156-3.79,5.69-3.146C586.114,308.216,587.698,310.664,587.089,313.052z"/>
		<rect x="547.181" y="311.779" fill="#35495E" width="5.513" height="5.496"/>
		<rect x="572.806" y="287.506" fill="#35495E" width="5.491" height="5.503"/>
		<g>
			<path fill="#35495E" d="M555.773,281.629c-7.485,0-13.582-6.097-13.582-13.583c0-7.502,6.097-13.612,13.582-13.612
				c7.512,0,13.599,6.11,13.599,13.612C569.372,275.532,563.285,281.629,555.773,281.629z M555.773,258.002
				c-5.517,0-10.022,4.503-10.022,10.044c0,5.525,4.506,10.028,10.022,10.028c5.535,0,10.052-4.503,10.052-10.028
				C565.825,262.505,561.309,258.002,555.773,258.002z"/>
		</g>
		<g>
			<polygon fill="#35495E" points="605.626,271.769 602.84,268.435 598.265,272.254 601.034,275.591 			"/>
			<polygon fill="#35495E" points="596.87,270.592 601.447,266.77 598.678,263.437 594.103,267.261 			"/>
			<path fill="#35495E" d="M605.477,277.53l1.253-1.04c0.927-0.771,1.039-2.14,0.267-3.059l-4.558,3.828
				C603.188,278.175,604.565,278.296,605.477,277.53z"/>
			<path fill="#35495E" d="M597.274,261.776l-1.731-2.09c-0.767-0.916-2.127-1.038-3.054-0.273l-1.247,1.04
				c-0.917,0.769-1.046,2.149-0.28,3.056l1.741,2.088L597.274,261.776z"/>
		</g>
		<g>
			<rect x="617.837" y="261.393" fill="#35495E" width="30.654" height="5.487"/>
		</g>
		<g>
			<path fill="#35495E" d="M658.568,264.538c0,4.342-3.519,7.863-7.865,7.863c-4.339,0-7.863-3.521-7.863-7.863
				c0-4.341,3.524-7.864,7.863-7.864C655.05,256.674,658.568,260.197,658.568,264.538z"/>
			<path fill="#35495E" d="M650.703,275.145c-5.849,0-10.607-4.758-10.607-10.606c0-5.851,4.759-10.607,10.607-10.607
				c5.852,0,10.608,4.757,10.608,10.607C661.312,270.387,656.555,275.145,650.703,275.145z M650.703,259.416
				c-2.822,0-5.12,2.3-5.12,5.122c0,2.823,2.298,5.119,5.12,5.119c2.825,0,5.122-2.296,5.122-5.119
				C655.825,261.716,653.528,259.416,650.703,259.416z"/>
		</g>
		<g>
			<rect x="621.066" y="296.472" fill="#35495E" width="54.031" height="5.486"/>
		</g>
		<g>
			<path fill="#35495E" d="M685.182,299.619c0,4.343-3.525,7.866-7.866,7.866c-4.345,0-7.86-3.523-7.86-7.866
				c0-4.341,3.516-7.862,7.86-7.862C681.656,291.757,685.182,295.278,685.182,299.619z"/>
			<path fill="#35495E" d="M677.315,310.228c-5.846,0-10.603-4.758-10.603-10.608c0-5.848,4.757-10.604,10.603-10.604
				c5.851,0,10.608,4.756,10.608,10.604C687.924,305.47,683.166,310.228,677.315,310.228z M677.315,294.5
				c-2.825,0-5.117,2.296-5.117,5.119s2.292,5.123,5.117,5.123c2.824,0,5.122-2.3,5.122-5.123S680.14,294.5,677.315,294.5z"/>
		</g>
		<g>
			<rect x="494.849" y="300.507" fill="#35495E" width="30.65" height="5.486"/>
		</g>
		<g>
			<circle fill="#35495E" cx="492.636" cy="302.847" r="7.864"/>
			<path fill="#35495E" d="M492.635,313.45c-5.85,0-10.606-4.758-10.606-10.604c0-5.847,4.757-10.604,10.606-10.604
				c5.851,0,10.608,4.758,10.608,10.604C503.243,308.692,498.485,313.45,492.635,313.45z M492.635,297.729
				c-2.823,0-5.12,2.296-5.12,5.118s2.297,5.118,5.12,5.118s5.122-2.296,5.122-5.118S495.458,297.729,492.635,297.729z"/>
		</g>
		<g>
			<rect x="470.244" y="265.429" fill="#35495E" width="54.031" height="5.486"/>
		</g>
		<g>
			<path fill="#35495E" d="M460.161,267.767c0-4.342,3.521-7.865,7.865-7.865s7.86,3.523,7.86,7.865c0,4.343-3.516,7.862-7.86,7.862
				S460.161,272.109,460.161,267.767z"/>
			<path fill="#35495E" d="M468.026,278.371c-5.851,0-10.608-4.757-10.608-10.604c0-5.852,4.758-10.608,10.608-10.608
				c5.846,0,10.602,4.757,10.602,10.608C478.628,273.614,473.872,278.371,468.026,278.371z M468.026,262.645
				c-2.822,0-5.122,2.299-5.122,5.122c0,2.822,2.3,5.12,5.122,5.12c2.824,0,5.117-2.298,5.117-5.12
				C473.144,264.943,470.851,262.645,468.026,262.645z"/>
		</g>
	</g>
</g>
</svg>
