<?xml version="1.0" encoding="utf-8"?>
<!-- Generator: Adobe Illustrator 15.0.2, SVG Export Plug-In  -->
<!DOCTYPE svg PUBLIC "-//W3C//DTD SVG 1.1//EN" "http://www.w3.org/Graphics/SVG/1.1/DTD/svg11.dtd" [
	<!ENTITY ns_flows "http://ns.adobe.com/Flows/1.0/">
]>
<svg version="1.1"
	 xmlns="http://www.w3.org/2000/svg" xmlns:xlink="http://www.w3.org/1999/xlink" xmlns:a="http://ns.adobe.com/AdobeSVGViewerExtensions/3.0/"
	 x="0px" y="0px" width="20px" height="20px" viewBox="-3 -3.293 20 20"
	 overflow="visible" enable-background="new -3 -3.293 20 20" xml:space="preserve">
<defs>
</defs>
<path fill="#495D73" d="M7,0c0.635,0,1.22,0.156,1.756,0.47c0.537,0.312,0.961,0.736,1.275,1.272
	C10.344,2.278,10.5,2.864,10.5,3.499v1.75c0,0.486-0.094,0.946-0.283,1.381C10.029,7.065,9.766,7.442,9.43,7.765
	c0.887,0.14,1.675,0.346,2.364,0.617c0.689,0.272,1.229,0.593,1.62,0.964C13.804,9.717,14,10.106,14,10.517v1.148
	c0,0.483-0.171,0.896-0.513,1.237c-0.341,0.342-0.754,0.512-1.237,0.512H1.75c-0.483,0-0.896-0.17-1.237-0.512
	C0.171,12.561,0,12.148,0,11.665v-1.152c0-0.41,0.196-0.801,0.586-1.171c0.391-0.371,0.93-0.691,1.618-0.963
	C2.892,8.106,3.68,7.901,4.567,7.765C4.233,7.439,3.971,7.06,3.783,6.628C3.594,6.194,3.5,5.735,3.5,5.249v-1.75
	c0-0.635,0.156-1.221,0.469-1.757C4.283,1.205,4.707,0.781,5.243,0.47C5.779,0.156,6.365,0,7,0z M7,8.749
	c-0.845,0-1.66,0.068-2.445,0.203s-1.47,0.324-2.053,0.566C2.268,9.616,2.059,9.721,1.875,9.829
	c-0.184,0.11-0.324,0.208-0.419,0.296c-0.096,0.089-0.167,0.166-0.217,0.23c-0.049,0.065-0.073,0.118-0.073,0.157v1.152
	c0,0.162,0.057,0.299,0.171,0.413c0.115,0.114,0.252,0.171,0.413,0.171h10.5c0.161,0,0.298-0.057,0.413-0.171
	c0.114-0.114,0.17-0.251,0.17-0.413v-1.148c0-0.039-0.024-0.092-0.073-0.156c-0.049-0.065-0.121-0.143-0.216-0.229
	c-0.096-0.089-0.236-0.188-0.419-0.298c-0.184-0.108-0.392-0.214-0.626-0.314c-0.583-0.243-1.267-0.432-2.053-0.567
	C8.66,8.817,7.844,8.749,7,8.749L7,8.749z M7,1.165c-0.645,0-1.194,0.229-1.65,0.685C4.895,2.307,4.666,2.855,4.666,3.5v1.75
	c0,0.644,0.229,1.193,0.684,1.649C5.806,7.355,6.355,7.584,7,7.584s1.194-0.229,1.65-0.685C9.105,6.443,9.334,5.894,9.334,5.25V3.5
	c0-0.645-0.229-1.193-0.684-1.65C8.194,1.395,7.645,1.165,7,1.165z"/>
</svg>
