<?xml version="1.0" encoding="utf-8"?>
<!-- Generator: Adobe Illustrator 15.0.2, SVG Export Plug-In  -->
<!DOCTYPE svg PUBLIC "-//W3C//DTD SVG 1.1//EN" "http://www.w3.org/Graphics/SVG/1.1/DTD/svg11.dtd" [
	<!ENTITY ns_flows "http://ns.adobe.com/Flows/1.0/">
]>
<svg version="1.1"
	 xmlns="http://www.w3.org/2000/svg" xmlns:xlink="http://www.w3.org/1999/xlink" xmlns:a="http://ns.adobe.com/AdobeSVGViewerExtensions/3.0/"
	 x="0px" y="0px" width="20px" height="20px" viewBox="-2.583 -2.584 20 20"
	 overflow="visible" enable-background="new -2.583 -2.584 20 20" xml:space="preserve">
<defs>
</defs>
<path fill="#495D73" d="M7.417,0C8.15,0,8.828,0.18,9.447,0.543c0.62,0.361,1.111,0.852,1.473,1.471
	c0.361,0.621,0.542,1.297,0.542,2.031v2.697h1.349c0.558,0,1.036,0.197,1.431,0.592c0.395,0.395,0.592,0.873,0.592,1.432v4.043
	c0,0.561-0.198,1.037-0.592,1.432c-0.395,0.395-0.873,0.592-1.431,0.592H2.023c-0.558,0-1.035-0.197-1.43-0.592S0,13.369,0,12.809
	V8.766c0-0.559,0.198-1.037,0.593-1.432s0.872-0.592,1.43-0.592h1.349V4.045c0-0.732,0.181-1.41,0.542-2.031
	c0.361-0.619,0.852-1.109,1.471-1.471C6.006,0.18,6.683,0,7.417,0L7.417,0z M12.811,8.09H2.023c-0.186,0-0.345,0.066-0.477,0.199
	C1.415,8.42,1.348,8.578,1.348,8.766v4.045c0,0.186,0.066,0.346,0.198,0.477c0.132,0.133,0.292,0.197,0.477,0.197h10.788
	c0.186,0,0.345-0.064,0.477-0.197c0.132-0.131,0.198-0.291,0.198-0.477V8.766c0-0.188-0.066-0.346-0.198-0.477
	C13.156,8.156,12.997,8.09,12.811,8.09z M7.417,1.348c-0.745,0-1.379,0.264-1.907,0.791c-0.526,0.527-0.79,1.162-0.79,1.906v2.697
	h5.395V4.045c0-0.744-0.264-1.379-0.791-1.906C8.796,1.611,8.161,1.348,7.417,1.348L7.417,1.348z"/>
</svg>
