<?xml version="1.0" encoding="utf-8"?>
<!-- Generator: Adobe Illustrator 15.0.2, SVG Export Plug-In  -->
<!DOCTYPE svg PUBLIC "-//W3C//DTD SVG 1.1//EN" "http://www.w3.org/Graphics/SVG/1.1/DTD/svg11.dtd" [
	<!ENTITY ns_flows "http://ns.adobe.com/Flows/1.0/">
]>
<svg version="1.1"
	 xmlns="http://www.w3.org/2000/svg" xmlns:xlink="http://www.w3.org/1999/xlink" xmlns:a="http://ns.adobe.com/AdobeSVGViewerExtensions/3.0/"
	 x="0px" y="0px" width="89px" height="75px" viewBox="-12.18 -6.081 89 75"
	 overflow="visible" enable-background="new -12.18 -6.081 89 75" xml:space="preserve">
<defs>
</defs>
<line fill="none" stroke="#7F8C8D" stroke-miterlimit="10" x1="33.033" y1="3.833" x2="33.033" y2="22.667"/>
<g>
	<path fill="none" stroke="#7F8C8D" stroke-miterlimit="10" stroke-dasharray="4.0705,4.0705" d="M47.213,46.405
		c0,2.431-1.971,4.399-4.4,4.399H23.256c-2.434,0-4.4-1.969-4.4-4.399V26.849c0-2.43,1.967-4.399,4.4-4.399h19.557
		c2.43,0,4.4,1.97,4.4,4.399V46.405z"/>
</g>
<circle fill="#FFFFFF" stroke="#7F8C8D" stroke-miterlimit="10" cx="33.033" cy="4" r="3.5"/>
<polyline fill="none" stroke="#7F8C8D" stroke-miterlimit="10" points="46.834,37.004 60.834,37.004 60.834,24.671 "/>
<polyline fill="none" stroke="#7F8C8D" stroke-miterlimit="10" points="18.141,36.751 4.141,36.751 4.141,49.084 "/>
<circle fill="#FFFFFF" stroke="#7F8C8D" stroke-miterlimit="10" cx="4" cy="48.504" r="3.5"/>
<line fill="none" stroke="#7F8C8D" stroke-miterlimit="10" x1="33.033" y1="60.339" x2="33.033" y2="50.505"/>
<circle fill="#FFFFFF" stroke="#7F8C8D" stroke-miterlimit="10" cx="33.033" cy="59.172" r="3.5"/>
<circle fill="#FFFFFF" stroke="#7F8C8D" stroke-miterlimit="10" cx="60.973" cy="25.251" r="3.5"/>
</svg>
