<?xml version="1.0" encoding="utf-8"?>
<!-- Generator: Adobe Illustrator 15.0.2, SVG Export Plug-In  -->
<!DOCTYPE svg PUBLIC "-//W3C//DTD SVG 1.1//EN" "http://www.w3.org/Graphics/SVG/1.1/DTD/svg11.dtd" [
	<!ENTITY ns_flows "http://ns.adobe.com/Flows/1.0/">
]>
<svg version="1.1"
	 xmlns="http://www.w3.org/2000/svg" xmlns:xlink="http://www.w3.org/1999/xlink" xmlns:a="http://ns.adobe.com/AdobeSVGViewerExtensions/3.0/"
	 x="0px" y="0px" width="169px" height="28px" viewBox="-2.062 -3.479 169 28"
	 overflow="visible" enable-background="new -2.062 -3.479 169 28" xml:space="preserve">
<defs>
</defs>
<path fill="#FFFFFF" d="M71.639,4.573L70.52,6.954c-1.742-1.055-3.481-1.488-4.694-1.488c-1.58,0-2.608,0.595-2.608,1.67
	c0,3.504,8.65,1.625,8.627,7.394c0,2.862-2.516,4.625-6.041,4.625c-2.519,0-4.899-1.03-6.548-2.541l1.166-2.334
	c1.648,1.511,3.71,2.334,5.428,2.334c1.875,0,2.999-0.709,2.999-1.946c0-3.571-8.653-1.578-8.653-7.277
	c0-2.748,2.357-4.465,5.837-4.465C68.113,2.925,70.151,3.588,71.639,4.573z"/>
<path fill="#FFFFFF" d="M81.968,3.039c3.318,0,5.377,1.511,5.377,4.006c0,1.808-1.075,3.159-2.814,3.571
	c2.152,0.365,3.435,1.899,3.435,4.051c0,2.748-2.222,4.396-5.839,4.396h-7.118V3.039H81.968z M77.71,9.677h4.118
	c1.718,0,2.749-0.801,2.749-2.151s-1.031-2.083-2.749-2.083H77.71V9.677z M77.71,16.658h4.118c2.107,0,3.366-0.823,3.366-2.334
	c0-1.42-1.259-2.267-3.366-2.267H77.71V16.658z"/>
<path fill="#FFFFFF" d="M106.83,11.052c0,4.578-3.707,8.125-8.492,8.125c-4.784,0-8.492-3.547-8.492-8.125
	c0-4.602,3.708-8.082,8.492-8.082C103.123,2.97,106.83,6.473,106.83,11.052z M92.593,11.052c0,3.182,2.633,5.7,5.769,5.7
	c3.137,0,5.699-2.519,5.699-5.7c0-3.183-2.562-5.655-5.699-5.655C95.202,5.396,92.593,7.869,92.593,11.052z"/>
<path fill="#FFFFFF" d="M119.358,16.613v2.45h-9.64V3.039h2.702v13.574H119.358z"/>
<path fill="#D25627" d="M133.576,11.485v7.578h-2.632v-6.845c0-1.833-1.099-2.953-2.931-2.953c-2.174,0.023-3.479,1.648-3.479,3.8
	v5.998h-2.633V2.078h2.633v7.188c0.87-1.717,2.428-2.473,4.51-2.473C131.882,6.793,133.576,8.579,133.576,11.485z"/>
<path fill="#D25627" d="M148.163,19.063h-2.635v-2.382c-0.823,1.695-2.357,2.45-4.349,2.473c-2.791,0-4.463-1.785-4.463-4.692V6.885
	h2.633v6.844c0,1.832,1.075,2.953,2.838,2.953c2.105-0.046,3.341-1.671,3.341-3.799V6.885h2.635V19.063z"/>
<path fill="#D25627" d="M164.877,13.02c0,3.639-2.29,6.135-5.769,6.135c-1.945,0-3.411-0.777-4.305-2.197v2.106h-2.633V2.078h2.633
	V8.99c0.894-1.419,2.359-2.197,4.258-2.197C162.518,6.793,164.877,9.312,164.877,13.02z M162.221,12.929
	c0-2.268-1.534-3.938-3.709-3.938c-2.174,0-3.708,1.649-3.708,3.938c0,2.357,1.534,3.982,3.708,3.982
	C160.687,16.911,162.221,15.262,162.221,12.929z"/>
<path fill="#FFFFFF" d="M31.859,21.041H18.094c-2.008,0-3.64-1.632-3.64-3.638V3.639c0-2.006,1.632-3.639,3.64-3.639h13.766
	c2.006,0,3.638,1.633,3.638,3.639v13.765C35.497,19.409,33.865,21.041,31.859,21.041z M18.094,1.083
	c-1.41,0-2.557,1.146-2.557,2.556v13.765c0,1.408,1.146,2.555,2.557,2.555h13.766c1.408,0,2.554-1.146,2.554-2.555V3.639
	c0-1.409-1.146-2.556-2.554-2.556H18.094z"/>
<ellipse transform="matrix(0.9695 0.2453 -0.2453 0.9695 3.9203 -5.0706)" fill="#FFFFFF" cx="22.318" cy="13.205" rx="1.009" ry="0.947"/>
<ellipse transform="matrix(0.9696 0.2447 -0.2447 0.9696 4.9064 -5.1079)" fill="#FFFFFF" cx="23.01" cy="17.192" rx="1.01" ry="0.948"/>
<path fill="#FFFFFF" d="M30.028,11.976c-0.125,0.507-0.669,0.806-1.208,0.671c-0.542-0.137-0.874-0.658-0.747-1.166
	c0.131-0.508,0.671-0.811,1.21-0.672C29.825,10.944,30.16,11.468,30.028,11.976z"/>
<path fill="#FFFFFF" d="M28.05,15.45c-0.131,0.507-0.673,0.81-1.213,0.669c-0.539-0.134-0.873-0.656-0.749-1.162
	c0.134-0.511,0.673-0.81,1.215-0.673C27.843,14.42,28.179,14.941,28.05,15.45z"/>
<rect x="19.534" y="15.18" fill="#FFFFFF" width="1.177" height="1.172"/>
<rect x="25.003" y="10.001" fill="#FFFFFF" width="1.17" height="1.174"/>
<path fill="#D25627" d="M21.369,8.746c-1.598,0-2.899-1.301-2.899-2.897c0-1.601,1.302-2.904,2.899-2.904
	c1.602,0,2.901,1.304,2.901,2.904C24.271,7.445,22.971,8.746,21.369,8.746z M21.369,3.705c-1.179,0-2.14,0.961-2.14,2.144
	c0,1.179,0.961,2.14,2.14,2.14c1.181,0,2.144-0.961,2.144-2.14C23.513,4.666,22.55,3.705,21.369,3.705z"/>
<rect x="30.756" y="6.059" transform="matrix(0.6416 0.767 -0.767 0.6416 16.3227 -21.5468)" fill="#FFFFFF" width="0.927" height="1.271"/>
<rect x="29.693" y="5.166" transform="matrix(-0.7673 0.6413 -0.6413 -0.7673 57.2095 -9.5036)" fill="#FFFFFF" width="1.271" height="0.924"/>
<path fill="#FFFFFF" d="M31.974,7.872L32.24,7.65c0.198-0.164,0.222-0.456,0.057-0.652l-0.974,0.817
	C31.484,8.01,31.778,8.035,31.974,7.872z"/>
<path fill="#FFFFFF" d="M30.224,4.512l-0.371-0.446C29.69,3.87,29.4,3.843,29.201,4.007l-0.267,0.222
	c-0.194,0.165-0.223,0.459-0.06,0.652l0.373,0.445L30.224,4.512z"/>
<rect x="34.61" y="4.474" fill="#FFFFFF" width="6.539" height="1.083"/>
<circle fill="#D25627" cx="41.622" cy="5.1" r="1.677"/>
<path fill="#FFFFFF" d="M41.623,7.319c-1.225,0-2.22-0.995-2.22-2.22c0-1.224,0.995-2.22,2.22-2.22c1.223,0,2.218,0.996,2.218,2.22
	C43.841,6.324,42.846,7.319,41.623,7.319z M41.623,3.964c-0.626,0-1.137,0.51-1.137,1.136c0,0.627,0.511,1.137,1.137,1.137
	c0.625,0,1.134-0.51,1.134-1.137C42.757,4.474,42.248,3.964,41.623,3.964z"/>
<rect x="35.298" y="11.956" fill="#FFFFFF" width="11.526" height="1.084"/>
<circle fill="#2C3E50" cx="47.297" cy="12.585" r="1.677"/>
<path fill="#FFFFFF" d="M47.297,14.805c-1.224,0-2.218-0.996-2.218-2.22s0.994-2.219,2.218-2.219s2.22,0.995,2.22,2.219
	S48.521,14.805,47.297,14.805z M47.297,11.449c-0.626,0-1.135,0.509-1.135,1.136c0,0.626,0.509,1.137,1.135,1.137
	s1.136-0.511,1.136-1.137C48.433,11.958,47.923,11.449,47.297,11.449z"/>
<rect x="8.37" y="12.817" fill="#FFFFFF" width="6.538" height="1.084"/>
<circle fill="#D25627" cx="7.898" cy="13.273" r="1.678"/>
<path fill="#FFFFFF" d="M7.897,15.492c-1.224,0-2.22-0.995-2.22-2.219c0-1.223,0.996-2.219,2.22-2.219
	c1.225,0,2.22,0.996,2.22,2.219C10.117,14.497,9.122,15.492,7.897,15.492z M7.897,12.139c-0.626,0-1.136,0.509-1.136,1.135
	c0,0.627,0.51,1.136,1.136,1.136c0.627,0,1.137-0.509,1.137-1.136C9.034,12.647,8.524,12.139,7.897,12.139z"/>
<rect x="2.694" y="5.334" fill="#FFFFFF" width="11.526" height="1.083"/>
<circle fill="#2C3E50" cx="2.22" cy="5.79" r="1.678"/>
<path fill="#FFFFFF" d="M2.22,8.008C0.996,8.008,0,7.013,0,5.79c0-1.225,0.996-2.22,2.22-2.22c1.225,0,2.22,0.995,2.22,2.22
	C4.439,7.013,3.444,8.008,2.22,8.008z M2.22,4.653c-0.626,0-1.136,0.51-1.136,1.137c0,0.625,0.51,1.134,1.136,1.134
	c0.627,0,1.137-0.509,1.137-1.134C3.356,5.163,2.847,4.653,2.22,4.653z"/>
</svg>
