<?xml version="1.0" encoding="utf-8"?>
<!-- Generator: Adobe Illustrator 18.1.1, SVG Export Plug-In . SVG Version: 6.00 Build 0)  -->
<svg version="1.1" id="Layer_1" xmlns="http://www.w3.org/2000/svg" xmlns:xlink="http://www.w3.org/1999/xlink" x="0px" y="0px"
	 viewBox="-1346 396.4 142 60" enable-background="new -1346 396.4 142 60" xml:space="preserve">
<path fill="#FFFFFF" d="M-1235.6,415.8h-12.7c-1.9,0-3.4-1.5-3.4-3.4v-12.7c0-1.9,1.5-3.4,3.4-3.4h12.7c1.9,0,3.4,1.5,3.4,3.4v12.7
	C-1232.3,414.3-1233.8,415.8-1235.6,415.8z M-1248.3,397.4c-1.3,0-2.4,1.1-2.4,2.4v12.7c0,1.3,1.1,2.4,2.4,2.4h12.7
	c1.3,0,2.4-1.1,2.4-2.4v-12.7c0-1.3-1.1-2.4-2.4-2.4H-1248.3z"/>
<ellipse transform="matrix(0.2454 -0.9694 0.9694 0.2454 -1335.1263 -898.0626)" fill="#FFFFFF" cx="-1244.4" cy="408.6" rx="0.9" ry="0.9"/>
<ellipse transform="matrix(0.245 -0.9695 0.9695 0.245 -1338.7474 -894.6295)" fill="#FFFFFF" cx="-1243.8" cy="412.3" rx="0.9" ry="0.9"/>
<path fill="#FFFFFF" d="M-1237.3,407.4c-0.1,0.5-0.6,0.7-1.1,0.6s-0.8-0.6-0.7-1.1c0.1-0.5,0.6-0.7,1.1-0.6
	C-1237.5,406.5-1237.2,407-1237.3,407.4z"/>
<path fill="#FFFFFF" d="M-1239.1,410.6c-0.1,0.5-0.6,0.7-1.1,0.6c-0.5-0.1-0.8-0.6-0.7-1.1c0.1-0.5,0.6-0.7,1.1-0.6
	C-1239.3,409.7-1239,410.2-1239.1,410.6z"/>
<rect x="-1247" y="410.4" fill="#FFFFFF" width="1.1" height="1.1"/>
<rect x="-1241.9" y="405.6" fill="#FFFFFF" width="1.1" height="1.1"/>
<path fill="#D25627" d="M-1245.3,404.5c-1.5,0-2.7-1.2-2.7-2.7c0-1.5,1.2-2.7,2.7-2.7c1.5,0,2.7,1.2,2.7,2.7
	C-1242.6,403.3-1243.8,404.5-1245.3,404.5z M-1245.3,399.8c-1.1,0-2,0.9-2,2c0,1.1,0.9,2,2,2c1.1,0,2-0.9,2-2
	C-1243.3,400.7-1244.2,399.8-1245.3,399.8z"/>
<rect x="-1236.6" y="402" transform="matrix(-0.6413 -0.7673 0.7673 -0.6413 -2337.8633 -287.8044)" fill="#FFFFFF" width="0.9" height="1.2"/>
<rect x="-1237.6" y="401.2" transform="matrix(0.7673 -0.6412 0.6412 0.7673 -545.3101 -699.7974)" fill="#FFFFFF" width="1.2" height="0.9"/>
<path fill="#FFFFFF" d="M-1235.5,403.7l0.2-0.2c0.2-0.2,0.2-0.4,0.1-0.6l-0.9,0.8C-1236,403.8-1235.7,403.8-1235.5,403.7z"/>
<path fill="#FFFFFF" d="M-1237.1,400.6l-0.3-0.4c-0.2-0.2-0.4-0.2-0.6-0.1l-0.2,0.2c-0.2,0.2-0.2,0.4-0.1,0.6l0.3,0.4L-1237.1,400.6
	z"/>
<rect x="-1233.1" y="400.5" fill="#FFFFFF" width="6" height="1"/>
<circle fill="#D25627" cx="-1226.6" cy="401.1" r="1.5"/>
<path fill="#FFFFFF" d="M-1226.6,403.1c-1.1,0-2-0.9-2-2c0-1.1,0.9-2,2-2c1.1,0,2,0.9,2,2C-1224.6,402.2-1225.5,403.1-1226.6,403.1z
	 M-1226.6,400c-0.6,0-1,0.5-1,1s0.5,1,1,1c0.6,0,1-0.5,1-1S-1226,400-1226.6,400z"/>
<rect x="-1232.4" y="407.4" fill="#FFFFFF" width="10.6" height="1"/>
<circle fill="#2C3E50" cx="-1221.4" cy="408" r="1.5"/>
<path fill="#FFFFFF" d="M-1221.4,410.1c-1.1,0-2-0.9-2-2c0-1.1,0.9-2,2-2c1.1,0,2,0.9,2,2S-1220.2,410.1-1221.4,410.1z M-1221.4,407
	c-0.6,0-1,0.5-1,1s0.5,1,1,1s1-0.5,1-1C-1220.3,407.4-1220.8,407-1221.4,407z"/>
<rect x="-1257.3" y="408.2" fill="#FFFFFF" width="6" height="1"/>
<circle fill="#D25627" cx="-1257.7" cy="408.6" r="1.5"/>
<path fill="#FFFFFF" d="M-1257.7,410.7c-1.1,0-2-0.9-2-2s0.9-2,2-2c1.1,0,2,0.9,2,2S-1256.6,410.7-1257.7,410.7z M-1257.7,407.6
	c-0.6,0-1,0.5-1,1s0.5,1,1,1s1-0.5,1-1S-1257.2,407.6-1257.7,407.6z"/>
<rect x="-1262.5" y="401.3" fill="#FFFFFF" width="10.6" height="1"/>
<circle fill="#2C3E50" cx="-1263" cy="401.7" r="1.5"/>
<path fill="#FFFFFF" d="M-1263,403.8c-1.1,0-2-0.9-2-2s0.9-2,2-2c1.1,0,2,0.9,2,2S-1261.8,403.8-1263,403.8z M-1263,400.7
	c-0.6,0-1,0.5-1,1s0.5,1,1,1s1-0.5,1-1S-1262.4,400.7-1263,400.7z"/>
<g>
	<path fill="#FFFFFF" d="M-1322.1,439.3c0.4,0.5,0.6,0.9,0.6,1.5c0,1.4-1.1,2.1-2.3,2.1h-4.1c-0.7,0-1.3-0.1-1.9-0.6
		c-0.5-0.4-0.9-1.1-0.9-1.7c0-0.6,0.3-1.1,1-1.1c0.5,0,0.9,0.4,0.9,0.9c0,0.6,0.3,0.6,0.8,0.6h4c0.1,0,0.6,0.1,0.6-0.2
		c0-0.1-0.3-0.4-0.3-0.5l-6.3-8.1c-0.4-0.5-0.6-0.9-0.6-1.5c0-0.7,0.4-1.4,1-1.8c0.5-0.3,0.9-0.3,1.5-0.3h3.9c0.7,0,1.3,0.1,1.8,0.6
		c0.5,0.4,0.9,1.1,0.9,1.8c0,0.6-0.3,1.1-1,1.1c-0.6,0-0.9-0.4-0.9-0.9c0-0.6-0.3-0.7-0.9-0.7h-3.9c-0.2,0-0.6-0.1-0.6,0.3
		c0,0.2,0.2,0.4,0.3,0.5L-1322.1,439.3z"/>
	<path fill="#FFFFFF" d="M-1311.4,435.2v-1c0-0.6,0.1-1.2,0.9-1.2c0.8,0,0.9,0.6,0.9,1.2v0.7c0,0.4,0,0.7-0.2,1.1l-4.5,9.7
		c-0.4,0.8-0.6,0.9-1.4,0.9h-1.4c-0.5,0-1.2-0.1-1.2-0.9c0-0.8,0.6-0.9,1.2-0.9h1.2l1.3-2.7h-0.1c-0.7,0-0.8-0.3-1.1-0.9l-2.2-4.8
		c-0.2-0.5-0.4-0.9-0.4-1.5v-0.8c0-0.6,0.1-1.2,0.9-1.2c0.8,0,0.9,0.6,0.9,1.2v1l2.4,5.2h0.4L-1311.4,435.2z"/>
	<path fill="#FFFFFF" d="M-1303.9,436.5v5.1c0,0.6-0.1,1.2-0.9,1.2c-0.8,0-0.9-0.6-0.9-1.2v-7.4c0-0.6,0.1-1.3,0.9-1.3
		c0.8,0,0.9,0.7,0.9,1.3v0.2v0l1.4-0.9c0.5-0.3,1-0.6,1.5-0.6h1.3c0.7,0,1.1,0.2,1.6,0.6c0.8,0.7,0.8,1.4,0.8,2.4l0.2,5.6
		c0,0.6-0.1,1.3-0.9,1.3c-0.7,0-0.9-0.6-0.9-1.2l-0.2-5.5c0-1.1-0.1-1.5-1.2-1.5h-0.6c-0.2,0-0.4,0.1-0.6,0.2L-1303.9,436.5z"/>
	<path fill="#FFFFFF" d="M-1293.3,428.6h5.2c2.7,0,3.9,1.7,3.9,4.3c0,1.1-0.2,2-1.2,2.9c1.1,1,1.2,2,1.2,3.3c0,2.4-1.6,3.8-3.9,3.8
		h-5.2V428.6z M-1291.5,434.8h3.3c1.3,0,2.1-0.6,2.1-2c0-1.5-0.4-2.4-2.1-2.4h-3.3V434.8z M-1291.5,441.1h3.3c1.3,0,2.1-0.6,2.1-2
		c0-1.5-0.4-2.4-2.1-2.4h-3.3V441.1z"/>
	<path fill="#FFFFFF" d="M-1275.3,441.1h1.3c0.6,0,1.2,0.1,1.2,0.9c0,0.8-0.7,0.9-1.2,0.9h-4.5c-0.5,0-1.2-0.1-1.2-0.9
		c0-0.8,0.6-0.9,1.2-0.9h1.4v-6.4h-1.4c-0.5,0-1.2-0.1-1.2-0.9c0-0.8,0.6-0.9,1.2-0.9h1.9c1,0,1.3,0.2,1.3,1.2V441.1z M-1278,429.4
		c0-0.6,0.4-0.8,0.8-0.8h1c0.5,0,0.8,0.2,0.8,0.8v0.8c0,0.6-0.4,0.8-0.8,0.8h-1c-0.5,0-0.8-0.2-0.8-0.8V429.4z"/>
	<path fill="#FFFFFF" d="M-1269.5,436.3c0-1.2,0.2-1.6,1.1-2.3c0.9-0.7,1.3-1,2.5-1h1.4c1.2,0,1.6,0.3,2.5,1
		c0.9,0.7,1.1,1.1,1.1,2.3v3.3c0,1.2-0.3,1.6-1.2,2.4s-1.3,0.9-2.4,0.9h-1.4c-1.1,0-1.5-0.1-2.4-0.9s-1.2-1.2-1.2-2.4V436.3z
		 M-1267.7,439.6c0,0.4,0.1,0.6,0.6,1.1c0.4,0.3,0.7,0.5,1.2,0.5h1.4c0.6,0,0.8-0.1,1.2-0.5c0.5-0.4,0.6-0.7,0.6-1.1v-3.3
		c0-0.4-0.1-0.6-0.6-1.1c-0.4-0.3-0.7-0.5-1.2-0.5h-1.4c-0.6,0-0.8,0.1-1.2,0.5c-0.5,0.4-0.6,0.7-0.6,1.1V439.6z"/>
	<path fill="#D25627" d="M-1255.3,436.7v5.3c0,0.6-0.3,0.9-0.9,0.9c-0.7,0-0.9-0.3-0.9-0.9v-12.5c0-0.6,0.3-0.9,0.9-0.9
		c0.7,0,0.9,0.3,0.9,0.9v5.3h5.4v-5.3c0-0.6,0.3-0.9,0.9-0.9c0.7,0,0.9,0.3,0.9,0.9V442c0,0.6-0.3,0.9-0.9,0.9
		c-0.7,0-0.9-0.3-0.9-0.9v-5.3H-1255.3z"/>
	<path fill="#D25627" d="M-1235.6,441.6c0,0.4,0.1,1.3-0.9,1.3c-0.8,0-0.9-0.6-0.9-1.2v-0.3l-1.4,0.9c-0.6,0.4-1.1,0.6-1.5,0.6h-1.3
		c-0.5,0-1-0.1-1.6-0.6c-0.8-0.7-0.8-1.4-0.8-2.4l-0.2-5.6c0-0.6,0.1-1.3,0.9-1.3c0.8,0,0.8,0.6,0.9,1.2l0.2,5.4
		c0,0.4,0,0.9,0.2,1.1s0.6,0.4,1,0.4h0.6c0.2,0,0.4-0.1,0.6-0.2l2.6-1.6v-5.1c0-0.6,0.1-1.2,0.9-1.2c0.8,0,0.9,0.6,0.9,1.2V441.6z"
		/>
	<path fill="#D25627" d="M-1230,434.3l0.3-0.3c0.6-0.6,0.9-1,1.8-1h2c0.5,0,0.9,0.3,1.3,0.6l0.6,0.5c0.7,0.6,1,1.1,1,2v3.6
		c0,0.9-0.3,1.4-1,2l-0.6,0.5c-0.4,0.4-0.9,0.6-1.4,0.6h-1.8c-0.7,0-1.2-0.4-1.7-0.9l-0.4-0.4v0.1c0,0.6-0.2,1.2-0.9,1.2
		c-0.8,0-0.9-0.6-0.9-1.2v-11.1c0-0.6,0.1-1.2,0.9-1.2c0.8,0,0.9,0.6,0.9,1.2V434.3z M-1230,438.6c0,0.6,0.1,0.8,0.5,1.2l1,0.9
		c0.2,0.2,0.5,0.4,0.7,0.4h1.3c0.3,0,0.4-0.1,0.6-0.2l0.8-0.6c0.2-0.2,0.2-0.6,0.2-0.9v-3.1c0-0.4-0.1-0.6-0.2-0.7l-0.8-0.6
		c-0.1-0.1-0.2-0.1-0.4-0.1h-1.2c-0.2,0-0.5,0.1-0.7,0.3l-1.1,1c-0.3,0.2-0.5,0.5-0.5,1.1V438.6z"/>
</g>
</svg>
