<?xml version="1.0" encoding="utf-8"?>
<!-- Generator: Adobe Illustrator 15.0.2, SVG Export Plug-In  -->
<!DOCTYPE svg PUBLIC "-//W3C//DTD SVG 1.1//EN" "http://www.w3.org/Graphics/SVG/1.1/DTD/svg11.dtd" [
	<!ENTITY ns_flows "http://ns.adobe.com/Flows/1.0/">
]>
<svg version="1.1"
	 xmlns="http://www.w3.org/2000/svg" xmlns:xlink="http://www.w3.org/1999/xlink" xmlns:a="http://ns.adobe.com/AdobeSVGViewerExtensions/3.0/"
	 x="0px" y="0px" width="32px" height="32px" viewBox="-5.252 -5.25 32 32"
	 overflow="visible" enable-background="new -5.252 -5.25 32 32" xml:space="preserve">
<defs>
</defs>
<path fill="#2C3E50" d="M8.795,0c1.19,0,2.33,0.235,3.415,0.699c1.087,0.468,2.022,1.092,2.807,1.874
	c0.785,0.784,1.409,1.718,1.876,2.806c0.463,1.087,0.695,2.226,0.695,3.415c0,1.024-0.168,2.005-0.498,2.94
	c-0.332,0.935-0.81,1.785-1.423,2.55l5.55,5.544c0.189,0.187,0.279,0.418,0.279,0.693c0,0.281-0.09,0.514-0.277,0.699
	c-0.186,0.186-0.416,0.278-0.697,0.278c-0.277,0-0.509-0.094-0.695-0.282l-5.541-5.552c-0.766,0.617-1.619,1.091-2.551,1.424
	c-0.939,0.334-1.919,0.503-2.939,0.503c-1.193,0-2.33-0.232-3.42-0.701c-1.082-0.464-2.021-1.088-2.803-1.872
	c-0.785-0.782-1.413-1.72-1.878-2.806C0.233,11.126,0,9.988,0,8.797c0-1.192,0.233-2.328,0.694-3.418
	c0.465-1.088,1.093-2.021,1.878-2.805c0.781-0.783,1.721-1.407,2.803-1.875C6.465,0.235,7.602,0,8.795,0L8.795,0z M8.795,1.955
	c-0.926,0-1.812,0.181-2.654,0.542c-0.848,0.362-1.574,0.85-2.186,1.459C3.344,4.569,2.857,5.295,2.496,6.139
	C2.137,6.985,1.953,7.872,1.953,8.797c0,0.926,0.184,1.812,0.543,2.655c0.361,0.849,0.848,1.573,1.459,2.187
	c0.611,0.609,1.338,1.096,2.186,1.458c0.842,0.359,1.729,0.542,2.654,0.542s1.808-0.183,2.656-0.542
	c0.845-0.362,1.57-0.849,2.184-1.458c0.61-0.613,1.096-1.338,1.461-2.187c0.357-0.843,0.543-1.729,0.543-2.655
	c0-0.925-0.186-1.812-0.543-2.658c-0.365-0.844-0.851-1.569-1.461-2.183c-0.613-0.609-1.339-1.097-2.184-1.459
	C10.603,2.136,9.721,1.955,8.795,1.955z"/>
</svg>
