<?xml version="1.0" encoding="utf-8"?>
<!-- Generator: Adobe Illustrator 15.0.2, SVG Export Plug-In  -->
<!DOCTYPE svg PUBLIC "-//W3C//DTD SVG 1.1//EN" "http://www.w3.org/Graphics/SVG/1.1/DTD/svg11.dtd" [
	<!ENTITY ns_flows "http://ns.adobe.com/Flows/1.0/">
]>
<svg version="1.1"
	 xmlns="http://www.w3.org/2000/svg" xmlns:xlink="http://www.w3.org/1999/xlink" xmlns:a="http://ns.adobe.com/AdobeSVGViewerExtensions/3.0/"
	 x="0px" y="0px" width="75px" height="80px" viewBox="-13.156 -9.644 75 80"
	 overflow="visible" enable-background="new -13.156 -9.644 75 80" xml:space="preserve">
<defs>
</defs>
<path fill="#ECF0F1" d="M44.95,57.673c0,0.776-0.688,1.405-1.532,1.405H1.532C0.687,59.078,0,58.449,0,57.673V1.404
	C0,0.628,0.687,0,1.532,0h41.884c0.846,0,1.532,0.628,1.532,1.404v56.269H44.95z"/>
<path fill="#3B97D3" d="M10.461,19.086c0,1.009-0.592,1.582-1.558,1.582c-0.603,0-1.104-0.265-1.475-0.723l0.4-0.644
	c0.329,0.358,0.722,0.551,1.066,0.551c0.451,0,0.715-0.279,0.715-0.795v-2.677H7.878v-0.759h2.583V19.086z"/>
<path fill="#3B97D3" d="M16.57,18.127c0,1.432-1.16,2.541-2.655,2.541c-1.497,0-2.655-1.109-2.655-2.541
	c0-1.439,1.158-2.527,2.655-2.527C15.41,15.601,16.57,16.696,16.57,18.127z M12.118,18.127c0,0.995,0.823,1.782,1.804,1.782
	s1.781-0.788,1.781-1.782c0-0.995-0.801-1.768-1.781-1.768C12.935,16.359,12.118,17.132,12.118,18.127z"/>
<path fill="#3B97D3" d="M21.733,18.557c0,1.31-0.823,2.112-2.175,2.112c-1.354,0-2.184-0.802-2.184-2.112v-2.935h0.845v2.935
	c0,0.845,0.522,1.353,1.346,1.353c0.815,0,1.323-0.501,1.323-1.353v-2.935h0.845V18.557z"/>
<path fill="#3B97D3" d="M25.209,19.115c-0.071,0.007-0.15,0.007-0.229,0.007h-1.189v1.51h-0.844v-5.011h2.033
	c1.28,0,2.018,0.623,2.018,1.711c0,0.801-0.372,1.367-1.039,1.625l1.125,1.675h-0.959L25.209,19.115z M24.98,18.363
	c0.773,0,1.215-0.329,1.215-1.009c0-0.658-0.441-0.973-1.215-0.973h-1.189v1.982H24.98z"/>
<path fill="#3B97D3" d="M31.639,20.632l-2.67-3.593v3.593h-0.845v-5.011h0.83l2.685,3.601v-3.601h0.83v5.011H31.639z"/>
<path fill="#3B97D3" d="M34.506,19.501l-0.48,1.131h-0.88l2.212-5.011h0.865l2.191,5.011h-0.903l-0.479-1.131H34.506z
	 M35.765,16.524L34.82,18.75h1.891L35.765,16.524z"/>
<path fill="#3B97D3" d="M42.096,19.867v0.766h-3.014v-5.011h0.844v4.245H42.096z"/>
<rect x="7.499" y="33.042" fill="#BDC3C7" width="22.991" height="2.044"/>
<rect x="7.3" y="6.144" fill="#95A5A5" width="21.353" height="3.462"/>
<rect x="7.3" y="24.819" fill="#BDC3C7" width="26.867" height="2.043"/>
<rect x="7.3" y="28.93" fill="#BDC3C7" width="31.699" height="2.043"/>
<rect x="7.499" y="37.153" fill="#BDC3C7" width="30.239" height="2.043"/>
<rect x="7.499" y="41.265" fill="#BDC3C7" width="34.23" height="2.043"/>
<rect x="7.499" y="45.376" fill="#BDC3C7" width="25.408" height="2.044"/>
</svg>
