<?xml version="1.0" encoding="utf-8"?>
<!-- Generator: Adobe Illustrator 15.0.2, SVG Export Plug-In  -->
<!DOCTYPE svg PUBLIC "-//W3C//DTD SVG 1.1//EN" "http://www.w3.org/Graphics/SVG/1.1/DTD/svg11.dtd" [
	<!ENTITY ns_flows "http://ns.adobe.com/Flows/1.0/">
]>
<svg version="1.1"
	 xmlns="http://www.w3.org/2000/svg" xmlns:xlink="http://www.w3.org/1999/xlink" xmlns:a="http://ns.adobe.com/AdobeSVGViewerExtensions/3.0/"
	 x="0px" y="0px" width="75px" height="80px" viewBox="-23.296 -17.651 75 80"
	 overflow="visible" enable-background="new -23.296 -17.651 75 80" xml:space="preserve">
<defs>
</defs>
<path fill="#2C3E50" d="M14.668,0c1.451,0,2.791,0.357,4.016,1.072c1.227,0.717,2.197,1.686,2.912,2.912
	C22.311,5.209,22.668,6.547,22.668,8v1.332c0,0.369-0.131,0.684-0.391,0.943c-0.262,0.262-0.574,0.391-0.943,0.391
	c-0.367,0-0.682-0.129-0.943-0.391C20.131,10.016,20,9.701,20,9.332V8c0-1.473-0.521-2.729-1.562-3.771
	c-1.043-1.041-2.299-1.562-3.771-1.562s-2.729,0.521-3.771,1.562C9.854,5.271,9.332,6.527,9.332,8v5.332h16
	c1.104,0,2.047,0.391,2.828,1.172s1.172,1.725,1.172,2.828v8c0,1.105-0.391,2.047-1.172,2.828s-1.725,1.172-2.828,1.172H4
	c-1.105,0-2.047-0.391-2.828-1.172S0,26.438,0,25.332v-8c0-1.104,0.391-2.047,1.172-2.828S2.895,13.332,4,13.332h2.666V8
	c0-1.451,0.357-2.791,1.072-4.016c0.717-1.227,1.688-2.197,2.912-2.912S13.215,0,14.666,0H14.668z M25.336,16H4.002
	c-0.367,0-0.682,0.131-0.943,0.391c-0.26,0.262-0.391,0.574-0.391,0.943v8c0,0.367,0.131,0.682,0.391,0.943
	c0.262,0.26,0.576,0.391,0.943,0.391h21.334c0.367,0,0.682-0.131,0.941-0.391c0.262-0.262,0.393-0.576,0.393-0.943v-8
	c0-0.369-0.131-0.682-0.393-0.943C26.018,16.131,25.703,16,25.336,16z"/>
<circle fill="#D25627" cx="14.666" cy="36.346" r="13.5"/>
<path fill="#FFFFFF" d="M16.486,29.447c0.834,0,1.631,0.164,2.392,0.49c0.76,0.325,1.414,0.763,1.963,1.311
	c0.551,0.55,0.987,1.204,1.312,1.965c0.326,0.761,0.489,1.559,0.489,2.391c0,0.778-0.142,1.525-0.424,2.24
	c-0.284,0.717-0.669,1.344-1.155,1.883c-0.487,0.537-1.067,0.984-1.742,1.338s-1.392,0.574-2.152,0.66v-1.379
	c0.767-0.111,1.462-0.389,2.088-0.832c0.625-0.443,1.118-1.008,1.478-1.693c0.36-0.688,0.54-1.426,0.54-2.217
	c0-0.648-0.127-1.268-0.38-1.859s-0.593-1.102-1.021-1.528c-0.428-0.429-0.937-0.769-1.528-1.021
	c-0.592-0.254-1.211-0.381-1.859-0.381c-0.592,0-1.161,0.107-1.707,0.317c-0.548,0.214-1.029,0.501-1.444,0.863
	c-0.415,0.364-0.762,0.8-1.042,1.306c-0.279,0.506-0.46,1.045-0.543,1.619h-1.421c-0.756,0-1.4,0.268-1.936,0.802
	c-0.534,0.534-0.802,1.179-0.802,1.935c0,0.413,0.081,0.796,0.243,1.15c0.162,0.352,0.375,0.642,0.639,0.868
	c0.264,0.226,0.557,0.401,0.879,0.528c0.324,0.127,0.648,0.189,0.977,0.189h2.736v1.369h-2.736c-0.745,0-1.432-0.184-2.061-0.551
	c-0.63-0.367-1.127-0.865-1.494-1.493c-0.367-0.629-0.55-1.315-0.55-2.062c-0.001-0.744,0.183-1.432,0.55-2.061
	s0.865-1.126,1.494-1.493c0.628-0.366,1.314-0.552,2.061-0.552h0.354c0.28-0.794,0.705-1.499,1.271-2.117
	c0.566-0.619,1.245-1.104,2.035-1.457C14.776,29.623,15.609,29.447,16.486,29.447L16.486,29.447z M15.118,34.921
	c0.188,0,0.351,0.067,0.486,0.203l2.052,2.052c0.132,0.133,0.198,0.292,0.198,0.481c0,0.196-0.065,0.358-0.195,0.489
	c-0.131,0.131-0.293,0.194-0.489,0.194c-0.192,0-0.355-0.065-0.486-0.197l-0.882-0.887v4.505c0,0.189-0.067,0.35-0.201,0.484
	c-0.134,0.134-0.295,0.201-0.483,0.201s-0.35-0.067-0.484-0.201c-0.133-0.135-0.2-0.295-0.2-0.484v-4.505l-0.882,0.887
	c-0.131,0.132-0.293,0.197-0.486,0.197c-0.188,0-0.351-0.066-0.484-0.2c-0.133-0.134-0.2-0.295-0.2-0.484
	c0-0.182,0.065-0.342,0.197-0.481l2.052-2.052c0.137-0.135,0.299-0.203,0.487-0.203L15.118,34.921z"/>
</svg>
