<?xml version="1.0" encoding="utf-8"?>
<!-- Generator: Adobe Illustrator 15.0.2, SVG Export Plug-In  -->
<!DOCTYPE svg PUBLIC "-//W3C//DTD SVG 1.1//EN" "http://www.w3.org/Graphics/SVG/1.1/DTD/svg11.dtd" [
	<!ENTITY ns_flows "http://ns.adobe.com/Flows/1.0/">
]>
<svg version="1.1"
	 xmlns="http://www.w3.org/2000/svg" xmlns:xlink="http://www.w3.org/1999/xlink" xmlns:a="http://ns.adobe.com/AdobeSVGViewerExtensions/3.0/"
	 x="0px" y="0px" width="75px" height="80px" viewBox="-23.296 -17.651 75 80"
	 overflow="visible" enable-background="new -23.296 -17.651 75 80" xml:space="preserve">
<defs>
</defs>
<path fill="#2C3E50" d="M14.668,0c1.451,0,2.791,0.357,4.016,1.072c1.227,0.717,2.197,1.686,2.912,2.912
	C22.311,5.209,22.668,6.547,22.668,8v1.332c0,0.369-0.131,0.684-0.391,0.943c-0.262,0.262-0.574,0.391-0.943,0.391
	c-0.367,0-0.682-0.129-0.943-0.391C20.131,10.016,20,9.701,20,9.332V8c0-1.473-0.521-2.729-1.562-3.771
	c-1.043-1.041-2.299-1.562-3.771-1.562s-2.729,0.521-3.771,1.562C9.854,5.271,9.332,6.527,9.332,8v5.332h16
	c1.104,0,2.047,0.391,2.828,1.172s1.172,1.725,1.172,2.828v8c0,1.105-0.391,2.047-1.172,2.828s-1.725,1.172-2.828,1.172H4
	c-1.105,0-2.047-0.391-2.828-1.172S0,26.438,0,25.332v-8c0-1.104,0.391-2.047,1.172-2.828S2.895,13.332,4,13.332h2.666V8
	c0-1.451,0.357-2.791,1.072-4.016c0.717-1.227,1.688-2.197,2.912-2.912S13.215,0,14.666,0H14.668z M25.336,16H4.002
	c-0.367,0-0.682,0.131-0.943,0.391c-0.26,0.262-0.391,0.574-0.391,0.943v8c0,0.367,0.131,0.682,0.391,0.943
	c0.262,0.26,0.576,0.391,0.943,0.391h21.334c0.367,0,0.682-0.131,0.941-0.391c0.262-0.262,0.393-0.576,0.393-0.943v-8
	c0-0.369-0.131-0.682-0.393-0.943C26.018,16.131,25.703,16,25.336,16z"/>
</svg>
