<?xml version="1.0" encoding="utf-8"?>
<!-- Generator: Adobe Illustrator 18.1.1, SVG Export Plug-In . SVG Version: 6.00 Build 0)  -->
<svg version="1.1" id="Layer_1" xmlns="http://www.w3.org/2000/svg" xmlns:xlink="http://www.w3.org/1999/xlink" x="0px" y="0px"
	 viewBox="0 0 4095.6 615.1" enable-background="new 0 0 4095.6 615.1" xml:space="preserve">
<g>
	<path fill="#2D3E50" d="M1682.8,388.2c20.7,12.7,51,23.4,82.8,23.4c47.3,0,74.9-25,74.9-61.1c0-33.5-19.1-52.6-67.4-71.2
		c-58.4-20.7-94.5-51-94.5-101.4c0-55.8,46.2-97.2,115.8-97.2c36.6,0,63.2,8.5,79.1,17.5l-12.7,37.7c-11.7-6.4-35.6-17-68-17
		c-48.9,0-67.4,29.2-67.4,53.6c0,33.5,21.8,49.9,71.2,69c60.5,23.4,91.3,52.6,91.3,105.1c0,55.2-40.9,103-125.3,103
		c-34.5,0-72.2-10.1-91.3-22.8L1682.8,388.2z"/>
	<path fill="#2D3E50" d="M1962.1,187.4l56.3,151.9c5.8,17,12.2,37.2,16.5,52.6h1.1c4.8-15.4,10.1-35,16.5-53.6l51-150.8h49.4
		l-70.1,183.2c-33.5,88.1-56.3,133.3-88.1,160.9c-22.8,20.2-45.7,28.1-57.3,30.3l-11.7-39.3c11.7-3.7,27.1-11.2,40.9-22.8
		c12.7-10.1,28.7-28.1,39.3-52c2.1-4.8,3.7-8.5,3.7-11.2s-1.1-6.4-3.2-12.2l-95-236.8H1962.1z"/>
	<path fill="#2D3E50" d="M2195.2,257c0-26.5-0.5-48.3-2.1-69.6h41.4l2.7,42.5h1.1c12.7-24.4,42.5-48.3,85-48.3
		c35.6,0,90.8,21.2,90.8,109.4v153.5h-46.7V296.3c0-41.4-15.4-75.9-59.5-75.9c-30.8,0-54.7,21.8-62.7,47.8
		c-2.1,5.8-3.2,13.8-3.2,21.8v154.5h-46.7V257z"/>
	<path fill="#2D3E50" d="M2491.5,91.3c20.2-4.2,52-7.4,84.4-7.4c46.2,0,75.9,8,98.2,26c18.6,13.8,29.7,35,29.7,63.2
		c0,34.5-22.8,64.8-60.5,78.6v1.1c34,8.5,73.8,36.6,73.8,89.7c0,30.8-12.2,54.2-30.3,71.7c-25,22.8-65.3,33.5-123.7,33.5
		c-31.9,0-56.3-2.1-71.7-4.2V91.3z M2537.7,237.9h41.9c48.9,0,77.5-25.5,77.5-60c0-41.9-31.9-58.4-78.6-58.4
		c-21.2,0-33.5,1.6-40.9,3.2V237.9z M2537.7,409.4c9,1.6,22.3,2.1,38.8,2.1c47.8,0,91.9-17.5,91.9-69.6c0-48.9-42-69-92.4-69h-38.2
		V409.4z"/>
	<path fill="#2D3E50" d="M2829.7,115.2c0.5,15.9-11.2,28.7-29.7,28.7c-16.5,0-28.1-12.7-28.1-28.7c0-16.5,12.2-29.2,29.2-29.2
		C2818.6,86,2829.7,98.8,2829.7,115.2z M2777.7,444.5v-257h46.7v257H2777.7z"/>
	<path fill="#2D3E50" d="M3134.5,313.8c0,95.1-65.8,136.5-128,136.5c-69.6,0-123.2-51-123.2-132.2c0-86,56.3-136.5,127.4-136.5
		C3084.6,181.6,3134.5,235.2,3134.5,313.8z M2930.6,316.5c0,56.3,32.4,98.8,78.1,98.8c44.6,0,78.1-42,78.1-99.8
		c0-43.5-21.8-98.8-77-98.8S2930.6,267.6,2930.6,316.5z"/>
	<path fill="#D25627" d="M3241.2,86.6v149.7h173.1V86.6h46.7v357.9h-46.7V276.7h-173.1v167.8H3195V86.6H3241.2z"/>
	<path fill="#D25627" d="M3754.7,374.4c0,26.6,0.5,49.9,2.1,70.1h-41.4l-2.7-41.9h-1.1c-12.2,20.7-39.3,47.8-85,47.8
		c-40.4,0-88.7-22.3-88.7-112.6V187.4h46.7v142.3c0,48.9,14.9,81.8,57.3,81.8c31.3,0,53.1-21.8,61.6-42.5c2.7-6.9,4.2-15.4,4.2-23.9
		V187.4h46.7V374.4z"/>
	<path fill="#D25627" d="M3830.1,444.5c1.1-17.5,2.1-43.5,2.1-66.4V67.4h46.2v161.4h1.1c16.5-28.7,46.2-47.3,87.6-47.3
		c63.7,0,108.9,53.1,108.3,131.2c0,91.9-57.9,137.5-115.2,137.5c-37.2,0-66.9-14.3-86-48.3h-1.6l-2.1,42.5H3830.1z M3878.4,341.4
		c0,5.8,1.1,11.7,2.1,17c9,32.4,36.1,54.7,70.1,54.7c48.9,0,78.1-39.8,78.1-98.8c0-51.5-26.5-95.6-76.5-95.6
		c-31.9,0-61.6,21.8-71.2,57.3c-1.1,5.3-2.7,11.7-2.7,19.1V341.4z"/>
</g>
<path fill="#2D3E50" d="M933.6,615.1H528.4c-56.1,0-104.5-45.9-104.5-104.5V105.5C424,49.4,469.8,1,528.4,1h405.1
	C989.6,1,1038,46.9,1038,105.5v405.1C1038,569.2,989.6,615.1,933.6,615.1z M528.4,29.1c-43.3,0-79,35.7-79,79v405.1
	c0,43.3,35.7,79,79,79h405.1c43.3,0,79-35.7,79-79V108c0-43.3-35.7-79-79-79H528.4z"/>
<path fill="#D25627" d="M625.3,258.4c-45.9,0-84.1-38.2-84.1-84.1s38.2-86.6,84.1-86.6s84.1,38.2,84.1,86.6
	C709.3,220.1,673.7,258.4,625.3,258.4z M625.3,108c-35.7,0-63.7,28-63.7,63.7s28,63.7,63.7,63.7s63.7-28,63.7-63.7
	S660.9,108,625.3,108z"/>
<rect x="902.7" y="177.2" transform="matrix(0.6413 0.7673 -0.7673 0.6413 479.4531 -632.9703)" fill="#2D3E50" width="28" height="38.2"/>
<polygon fill="#2D3E50" points="882.6,187 910.6,164.1 895.3,143.7 864.8,166.6 "/>
<path fill="#2D3E50" d="M885.1,133.5L875,120.8c-5.1-5.1-12.7-7.6-20.4-2.5l-7.6,7.6c-5.1,5.1-7.6,12.7-2.5,20.4l10.2,12.7
	L885.1,133.5z"/>
<rect x="1015.1" y="133.5" fill="#2D3E50" width="191.1" height="25.5"/>
<rect x="1035.5" y="355.2" fill="#2D3E50" width="338.9" height="25.5"/>
<rect x="243.1" y="380.7" fill="#2D3E50" width="191.1" height="25.5"/>
<rect x="103" y="159" fill="#2D3E50" width="338.9" height="25.5"/>
<path fill="#2D3E50" d="M918.5,229.7l10.4,12.5c5.2,5,12.9,7.4,20.4,2.2l7.5-7.8c5-5.2,7.4-12.9,2.2-20.4l-10.4-12.5L918.5,229.7z"
	/>
<circle fill="#2D3E50" cx="808.2" cy="446.9" r="26.3"/>
<circle fill="#2D3E50" cx="685.9" cy="499.5" r="26.3"/>
<circle fill="#2D3E50" cx="669.3" cy="394.3" r="26.3"/>
<circle fill="#2D3E50" cx="845.4" cy="356" r="26.3"/>
<circle fill="#D25627" stroke="#2D3E50" stroke-width="24" stroke-miterlimit="10" cx="189.6" cy="394.1" r="48.4"/>
<circle fill="#2D3E50" stroke="#2D3E50" stroke-width="24" stroke-miterlimit="10" cx="60.4" cy="171.7" r="48.4"/>
<circle fill="#D25627" stroke="#2D3E50" stroke-width="24" stroke-miterlimit="10" cx="1253.3" cy="146.3" r="48.4"/>
<circle fill="#2D3E50" stroke="#2D3E50" stroke-width="24" stroke-miterlimit="10" cx="1413.3" cy="367.9" r="48.4"/>
<rect x="731" y="294" fill="#2D3E50" width="35.7" height="35.7"/>
<rect x="548.7" y="442.5" fill="#2D3E50" width="35.7" height="35.7"/>
<g>
</g>
<g>
</g>
<g>
</g>
<g>
</g>
<g>
</g>
<g>
</g>
</svg>
